<?xml version="1.0" encoding="UTF-8"?>
<svg width="23px" height="24px" viewBox="0 0 23 24" version="1.1" xmlns="http://www.w3.org/2000/svg" xmlns:xlink="http://www.w3.org/1999/xlink">
    <!-- Generator: Sketch 52.6 (67491) - http://www.bohemiancoding.com/sketch -->
    <title>Combined Shape</title>
    <desc>Created with Sketch.</desc>
    <g id="Designs" stroke="none" stroke-width="1" fill="none" fill-rule="evenodd">
        <g id="Desktop---Suggestions---Empty" transform="translate(-474.000000, -118.000000)" fill="#FFFFFF" fill-rule="nonzero">
            <g id="Group-15" transform="translate(450.000000, 94.000000)">
                <g id="Group-12" transform="translate(24.000000, 23.000000)">
                    <path d="M11.5,2.42729409 C11.2377969,2.42729409 11.0252524,2.21743512 11.0252524,1.958545 L11.0252524,1.46874908 C11.0252524,1.20985897 11.2377969,1 11.5,1 C11.7621556,1 11.9747476,1.20985897 11.9747476,1.46874908 L11.9747476,1.958545 C11.9747476,2.21743512 11.7621556,2.42729409 11.5,2.42729409 Z M3.64672589,5.62336597 C3.55396022,5.71538142 3.43214,5.76141258 3.3102723,5.76141258 C3.18911672,5.76141258 3.06796115,5.71589704 2.9753379,5.62486597 L2.51635196,5.17374185 C2.33053576,4.99107033 2.32987112,4.69430528 2.51483277,4.51083689 C2.69984189,4.32732163 3.00040457,4.32671225 3.18622076,4.5093369 L3.6452067,4.96046101 C3.8310229,5.14313253 3.83168754,5.43989758 3.64672589,5.62336597 Z M22.5252524,12.8732268 C22.7874555,12.8732268 23,13.0831327 23,13.3419759 C23,13.6008191 22.787408,13.810725 22.5252524,13.810725 L22.0269099,13.810725 C21.7647543,13.810725 21.5521624,13.6008191 21.5521624,13.3419759 C21.5521624,13.0831327 21.7647543,12.8732268 22.0269099,12.8732268 L22.5252524,12.8732268 Z M0.97309007,12.8732268 C1.23524567,12.8732268 1.44783763,13.0831327 1.44783763,13.3419759 C1.44783763,13.6008191 1.23524567,13.810725 0.97309007,13.810725 L0.474747558,13.810725 C0.212591957,13.810725 -1.44328993e-15,13.6008191 -1.44328993e-15,13.3419759 C-1.44328993e-15,13.0831327 0.212591957,12.8732268 0.474747558,12.8732268 L0.97309007,12.8732268 Z M19.8137792,4.5093369 C19.9996429,4.32671225 20.3002056,4.32741538 20.4851672,4.51083689 C20.6701764,4.69430528 20.6694642,4.9911172 20.483648,5.17374185 L20.0246621,5.62486597 C19.9320389,5.71589704 19.8108833,5.76141258 19.6897277,5.76141258 C19.56786,5.76141258 19.4460398,5.71538142 19.3532741,5.62336597 C19.168265,5.43989758 19.1689771,5.14313253 19.3547933,4.96046101 L19.8137792,4.5093369 Z M17.4234728,5.68167836 C19.0129751,7.24012844 19.8883621,9.31387439 19.8883621,11.5208857 C19.8883621,13.3357884 19.3002448,15.0575038 18.1875315,16.4998447 C17.1841525,17.8005297 15.7876351,18.7930121 14.2263328,19.3219017 L14.2294661,20.1477907 L14.5977753,20.1477907 C14.8599309,20.1477907 15.0725228,20.3576966 15.0725228,20.6165398 C15.0725228,20.8753831 14.8599309,21.0852889 14.5977753,21.0852889 L14.2330267,21.0852889 L14.2369197,22.1051463 L14.5977753,22.1051463 C14.8599309,22.1051463 15.0725228,22.3150521 15.0725228,22.5738954 C15.0725228,22.8327386 14.8599309,23.0426444 14.5977753,23.0426444 L14.2404803,23.0426444 L14.2461298,24.5295165 C14.2466045,24.6541569 14.1968035,24.7737817 14.1076934,24.862094 C14.0186307,24.9503595 13.8975701,25 13.7713822,25 L9.22857031,25 C9.10238241,25 8.98132178,24.9504063 8.89225914,24.862094 C8.80314902,24.7737817 8.753348,24.6541101 8.75382275,24.5295165 L8.75947225,23.0426444 L8.40217723,23.0426444 C8.14002163,23.0426444 7.92742968,22.8327386 7.92742968,22.5738954 C7.92742968,22.3150521 8.14002163,22.1051463 8.40217723,22.1051463 L8.76303285,22.1051463 L8.76692578,21.0852889 L8.40217723,21.0852889 C8.14002163,21.0852889 7.92742968,20.8753831 7.92742968,20.6165398 C7.92742968,20.3576966 8.14002163,20.1477907 8.40217723,20.1477907 L8.77048639,20.1477907 L8.77361972,19.3219017 C7.19332753,18.7867309 5.7846091,17.778311 4.77795437,16.4547979 C3.66144307,14.9868164 3.0855268,13.2386636 3.11249247,11.3993859 C3.14368338,9.27168697 4.03535424,7.24701905 5.62314745,5.69827207 C7.21027601,4.15022822 9.27595011,3.28937053 11.4396596,3.27437056 C11.4599313,3.27422993 11.4803455,3.27418306 11.5005697,3.27418306 C13.7373903,3.27418306 15.8385755,4.12772827 17.4234728,5.68167836 Z M13.2948781,24.062455 L13.2909852,23.0425976 L9.70901484,23.0425976 L9.70516938,24.062455 L13.2948781,24.062455 Z M9.71257544,22.1050994 L13.2874246,22.1050994 L13.2835316,21.085242 L9.7164209,21.085242 L9.71257544,22.1050994 Z M13.6160923,18.5301845 C16.7500908,17.6182332 18.938867,14.735895 18.9389144,11.5208388 C18.9389144,9.5654989 18.1631295,7.72804936 16.754411,6.34688018 C15.3488259,4.968711 13.4846822,4.21163435 11.5003798,4.21163435 C11.4822919,4.21163435 11.4643939,4.21168123 11.4463061,4.21182185 C7.50034677,4.23914992 4.11867244,7.53684661 4.06189263,11.4128859 C4.01403808,14.6777233 6.2024819,17.6044051 9.38390771,18.5301845 C9.58648249,18.5891063 9.7252512,18.7730903 9.72444413,18.981543 L9.71998151,20.1477439 L13.2800185,20.1477439 L13.2755559,18.981543 C13.2747963,18.7730903 13.4135175,18.5891063 13.6160923,18.5301845 Z M16.3734261,10.3221068 L16.6964918,10.3221068 C16.9183414,10.3221068 17.0981757,10.4996689 17.0981757,10.7187154 L17.0981757,12.3638841 C17.0981757,12.5829305 16.9183414,12.7604927 16.6964918,12.7604927 L16.3733786,12.7604927 C16.2526978,13.2355699 16.0630836,13.6835065 15.8157402,14.0932869 L16.0460402,14.3214271 C16.2022321,14.4762081 16.2022321,14.7265669 16.0460402,14.8813479 L14.872939,16.0436581 C14.7159874,16.1991891 14.4609056,16.1991891 14.3039066,16.0436581 L14.0756005,15.8174398 C13.6620479,16.0625487 13.2099458,16.2503765 12.7304507,16.3699544 L12.7304507,16.6915162 C12.7304507,16.9105627 12.5506163,17.0881248 12.3287668,17.0881248 L10.6711382,17.0881248 C10.4492887,17.0881248 10.2694543,16.9105627 10.2694543,16.6915162 L10.2694543,16.3699544 C9.79000677,16.2503765 9.33790467,16.0625018 8.9243046,15.8174398 L8.6959985,16.0436581 C8.53904695,16.1991891 8.28396509,16.1991891 8.12696607,16.0436581 L6.95386486,14.8813479 C6.79767291,14.7265669 6.79767291,14.4762081 6.95386486,14.3214271 L7.1841649,14.0932869 C6.93682142,13.6835065 6.74720725,13.2355699 6.62652642,12.7604927 L6.30341323,12.7604927 C6.08156369,12.7604927 5.90172932,12.5829305 5.90172932,12.3638841 L5.90172932,10.7187154 C5.90172932,10.4996689 6.08156369,10.3221068 6.30341323,10.3221068 L6.62652642,10.3221068 C6.74720725,9.8470296 6.93682142,9.39909297 7.1841649,8.98931252 L6.95386486,8.76112547 C6.79767291,8.60634452 6.79767291,8.35598563 6.95386486,8.20120469 L8.12696607,7.03889446 C8.28391762,6.88336351 8.53899948,6.88336351 8.6959985,7.03889446 L8.9243046,7.26511276 C9.3378572,7.02005074 9.7899593,6.83217611 10.2694543,6.71259822 L10.2694543,6.39103635 C10.2694543,6.1719899 10.4492887,5.99442775 10.6711382,5.99442775 L12.3287668,5.99442775 C12.5506163,5.99442775 12.7304507,6.1719899 12.7304507,6.39103635 L12.7304507,6.71259822 C13.2099458,6.83217611 13.6620479,7.02005074 14.0756005,7.26511276 L14.3039066,7.03889446 C14.4609056,6.88336351 14.7159874,6.88336351 14.8729865,7.03889446 L16.0460877,8.20120469 C16.2022796,8.35598563 16.2022796,8.60634452 16.0460877,8.76112547 L15.8157876,8.98931252 C16.0631311,9.39909297 16.2527453,9.8470296 16.3734261,10.3221068 Z M11.5,14.3613645 C13.0718892,14.3613645 14.3461591,13.0987889 14.3461591,11.5413232 C14.3461591,9.98385745 13.0718892,8.72128179 11.5,8.72128179 C9.92811083,8.72128179 8.65384091,9.98385745 8.65384091,11.5413232 C8.65384091,13.0987889 9.92811083,14.3613645 11.5,14.3613645 Z" id="Combined-Shape"></path>
                </g>
            </g>
        </g>
    </g>
</svg>