<?xml version="1.0" encoding="UTF-8"?>
<svg width="131px" height="137px" viewBox="0 0 131 137" version="1.1" xmlns="http://www.w3.org/2000/svg" xmlns:xlink="http://www.w3.org/1999/xlink">
    <!-- Generator: Sketch 52.6 (67491) - http://www.bohemiancoding.com/sketch -->
    <title>Group 16</title>
    <desc>Created with Sketch.</desc>
    <g id="Designs" stroke="none" stroke-width="1" fill="none" fill-rule="evenodd" opacity="0.5">
        <g id="Desktop---Suggestions---Empty" transform="translate(-798.000000, -301.000000)" fill-rule="nonzero">
            <g id="Group-4" transform="translate(659.000000, 301.000000)">
                <g id="Group-16" transform="translate(139.891500, 0.000000)">
                    <path d="M61.9353,19.7428108 C32.8190282,19.7372196 9.20899849,43.332123 9.19592973,72.4483924 C9.18286098,101.564662 32.7717001,125.18075 61.8879652,125.201297 C91.0042304,125.221843 114.626376,101.63907 114.6544,72.5228108 C114.670564,58.5302875 109.123383,45.1053274 99.234881,35.2054029 C89.3463795,25.3054783 75.9278326,19.7428015 61.9353,19.7428108 Z" id="Path" stroke="#3A4374" stroke-width="1.04545" stroke-linecap="round" stroke-linejoin="round"></path>
                    <ellipse id="Oval" fill="#231F20" cx="89.57375" cy="55.3185608" rx="2.436" ry="3.62355"></ellipse>
                    <path d="M8.66862138e-13,56.8512108 L123.83,29.4462108 L99.47,22.3412108 C99.47,22.3412108 86.275,0.467960799 82.75295,0.0112107991 C79.2309,-0.445539201 15.225,13.2062108 15.225,13.2062108 L11.165,44.0216108 L8.66862138e-13,56.8512108 Z" id="Path" fill="#3A4374"></path>
                    <polygon id="Path" fill="#3A4374" points="25.781 131.047711 11.78415 108.920711 72.96835 98.4560608 77.17045 119.659411 83.38225 100.130811 114.68485 106.312161 108.3208 131.047711"></polygon>
                    <path d="M105.795825,82.5633332 L111.489975,82.5633332 L111.489975,103.817433 C111.489975,105.297335 110.290277,106.497033 108.810375,106.497033 L108.475425,106.497033 C106.995523,106.497033 105.795825,105.297335 105.795825,103.817433 L105.795825,82.5633332 Z" id="Path" fill="#FFFFFF" transform="translate(108.642900, 94.530183) rotate(-7.880000) translate(-108.642900, -94.530183) "></path>
                    <path d="M109.75195,106.951611 C108.162222,106.947008 106.817352,105.775111 106.5953,104.200961 L103.68225,83.1397108 C103.646252,82.862347 103.841445,82.6081411 104.1187,82.5713108 L109.75195,81.7897608 C109.885646,81.7723666 110.020769,81.8088862 110.1275,81.8912608 C110.236159,81.9707039 110.3062,82.0923537 110.32035,82.2262108 L113.2131,103.277311 C113.334358,104.115384 113.114918,104.967112 112.603791,105.642257 C112.092665,106.317401 111.332434,106.759717 110.4929,106.870411 L110.1681,106.921161 C110.030207,106.940478 109.891186,106.95065 109.75195,106.951611 Z M104.75815,83.5051108 L107.60015,104.058861 C107.768039,105.244149 108.859468,106.07291 110.0463,105.916311 L110.38125,105.916311 C111.565466,105.748585 112.391271,104.655075 112.22855,103.470161 L109.38655,82.9164108 L104.75815,83.5051108 Z" id="Shape" fill="#3A4374"></path>
                    <rect id="Rectangle" fill="#FFFFFF" transform="translate(105.824557, 74.149737) rotate(-7.880000) translate(-105.824557, -74.149737) " x="101.231682" y="63.7561367" width="9.18575" height="20.7872"></rect>
                    <path d="M102.6977,85.5960108 C102.588346,85.5933209 102.482297,85.5579715 102.3932,85.4945108 C102.282518,85.4169003 102.211899,85.2942479 102.20035,85.1595608 L99.3482,64.5550608 C99.3267744,64.4226813 99.3597149,64.2872593 99.43955,64.1795108 C99.5234547,64.0759537 99.642815,64.0072311 99.7745,63.9866608 L108.9095,62.7280608 C109.043183,62.7079079 109.179309,62.7430444 109.286538,62.8253807 C109.393766,62.9077169 109.462856,63.0301571 109.4779,63.1645108 L112.33005,83.7588608 C112.366048,84.0362246 112.170855,84.2904305 111.8936,84.3272608 L102.7586,85.5858608 L102.6977,85.5960108 Z M100.4241,64.9204608 L103.13415,84.5099608 L111.25415,83.3934608 L108.5441,63.8039608 L100.4241,64.9204608 Z" id="Shape" fill="#3A4374"></path>
                    <rect id="Rectangle" fill="#FFFFFF" transform="translate(111.704362, 116.618376) rotate(-7.880000) translate(-111.704362, -116.618376) " x="107.111487" y="98.5412265" width="9.18575" height="36.1543" rx="3.248"></rect>
                    <path d="M112.39095,135.259961 C110.518667,135.257591 108.93412,133.876524 108.67605,132.022111 L104.61605,102.637861 C104.475886,101.651824 104.735316,100.650644 105.3367,99.8567608 C105.938955,99.0657645 106.828875,98.544213 107.8133,98.4053108 L110.4929,98.0399108 C112.541737,97.7569865 114.432067,99.1883662 114.7153,101.237161 L118.7753,130.672161 C119.052385,132.719469 117.623789,134.606122 115.57805,134.894561 L112.89845,135.270111 L112.39095,135.259961 Z M111.01055,99.0143108 C110.885568,99.0042692 110.759982,99.0042692 110.635,99.0143108 L107.9554,99.3797108 C107.234524,99.4780414 106.58346,99.8620959 106.1487,100.445461 C105.703159,101.02177 105.512487,101.755124 105.6209,102.475461 L109.6809,131.910461 C109.896019,133.384949 111.246122,134.420027 112.7259,134.244961 L115.4055,133.869411 C116.882927,133.659308 117.920675,132.305724 117.74,130.824411 L113.68,101.389411 C113.493261,100.039433 112.342912,99.0317966 110.9801,99.0244608 L111.01055,99.0143108 Z" id="Shape" fill="#3A4374"></path>
                    <circle id="Oval" fill="#FFFFFF" cx="103.6721" cy="58.6071608" r="24.39045"></circle>
                    <path d="M103.6518,83.5051108 C90.3401574,83.4990825 79.3859654,73.0273643 78.7807376,59.729486 C78.1755099,46.4316078 88.1331833,35.0081256 101.389244,33.7929186 C114.645304,32.5777117 126.513977,42.0003334 128.3366,55.1866108 C130.204745,68.7923795 120.721126,81.3479654 107.1231,83.2716608 C105.972481,83.4266105 104.812805,83.5046005 103.6518,83.5051108 Z M103.6518,34.7140608 C102.548404,34.7129745 101.446233,34.787583 100.35305,34.9373608 C90.7796175,36.2603385 82.9459477,43.2202514 80.5052238,52.5713876 C78.0644998,61.9225237 81.4974384,71.8231147 89.2031101,77.6560817 C96.9087818,83.4890486 107.369503,84.1055501 115.706983,79.2180844 C124.044462,74.3306186 128.616577,64.9018046 127.29115,55.3287108 C125.641492,43.5471382 115.588793,34.7656192 103.6924,34.7140608 L103.6518,34.7140608 Z" id="Shape" fill="#3A4374"></path>
                    <circle id="Oval" fill="#FFFFFF" cx="103.6721" cy="58.6071608" r="19.8128"></circle>
                    <path d="M103.66195,78.9274608 C92.7229826,78.9276 83.7510562,70.2600703 83.3737694,59.3276112 C82.9964826,48.395152 91.3495302,39.1297253 102.262482,38.3757396 C113.175433,37.6217538 122.723343,45.6503871 123.853132,56.5308552 C124.98292,67.4113233 117.288247,77.2303636 106.4532,78.7346108 C105.528442,78.8641228 104.595733,78.9285645 103.66195,78.9274608 Z M103.66195,39.3424608 C102.762286,39.3430263 101.863677,39.4040639 100.9722,39.5251608 C90.6823071,40.9518888 83.3715814,50.2728876 84.4375977,60.6063797 C85.5036139,70.9398717 94.5632543,78.5720826 104.927705,77.8680822 C115.292155,77.1640818 123.236515,68.3768822 122.895392,57.9941522 C122.554268,47.6114221 114.050259,39.3646317 103.66195,39.3424608 Z" id="Shape" fill="#3A4374"></path>
                    <path d="M126.96635,113.589711 C125.625828,111.888503 123.92799,110.502512 121.99285,109.529711 C116.1769,106.484711 109.50835,106.586211 103.3879,108.514711 C101.2158,109.204911 97.00355,110.189461 96.78025,113.072061 C96.7968602,114.252627 97.5842192,115.283201 98.7189,115.609561 C99.8296383,115.897563 100.989433,115.94257 102.11915,115.741511 C100.509388,115.698244 98.9187322,116.098541 97.5212,116.898611 C96.21185,117.822261 95.4912,119.842111 96.5671,121.070261 C97.0425835,121.580855 97.662054,121.934838 98.34335,122.085261 C99.8243885,122.492577 101.390582,122.47146 102.8601,122.024361 C101.26999,122.328975 99.7203298,122.816011 98.24185,123.475811 C97.34865,123.871661 96.35395,124.572011 96.45545,125.505811 C96.55695,126.439611 97.47045,126.865911 98.30275,127.150111 C100.053833,127.750753 101.883185,128.092687 103.733,128.165111 C102.136347,128.454749 100.626503,129.103808 99.31775,130.063161 C97.28775,131.768361 97.28775,135.006211 100.0384,135.929861 C100.920782,136.187981 101.840592,136.294377 102.7586,136.244511 C110.8786,136.244511 120.6023,135.229511 126.1036,128.469611 C128.810941,125.306258 129.783201,121.010844 128.702,116.989961 C128.326005,115.764066 127.738615,114.613331 126.96635,113.589711 Z" id="Path" fill="#FFFFFF"></path>
                    <path d="M102.6977,136.721561 C101.745039,136.767959 100.791324,136.654748 99.876,136.386611 C98.6399793,136.010559 97.7114348,134.984478 97.4603,133.717161 C97.2246046,132.190877 97.8016373,130.652123 98.9828,129.657161 C99.637174,129.114139 100.378343,128.685222 101.1752,128.388411 C100.140247,128.212956 99.1217204,127.951534 98.1302,127.606861 C96.78025,127.139961 96.1002,126.449761 95.94795,125.576861 C95.7957,124.703961 96.57725,123.648361 97.97795,122.988611 L98.6986,122.684111 C98.5137154,122.649756 98.3307633,122.605712 98.1505,122.552161 C97.3697428,122.387545 96.6599756,121.982978 96.1205,121.395061 C95.6200933,120.781693 95.4025455,119.985247 95.52165,119.202661 C95.6798902,118.113824 96.2732761,117.135836 97.16595,116.492611 C97.4817818,116.271003 97.8224246,116.087056 98.18095,115.944511 C96.999066,115.462239 96.2308495,114.307903 96.2423,113.031461 C96.47575,110.067661 100.1399,108.971461 102.5556,108.230511 L103.2052,108.037661 C109.9854,105.896011 116.73515,106.271561 122.19585,109.052661 C124.203686,110.069179 125.961201,111.518176 127.3419,113.295361 C128.15256,114.358537 128.774029,115.553406 129.17905,116.827561 C130.320017,121.012581 129.312558,125.491023 126.4893,128.784261 C120.73425,135.818211 110.76695,136.731711 102.72815,136.741861 L102.6977,136.721561 Z M101.73345,122.724711 C100.606036,123.010846 99.5056799,123.394612 98.44485,123.871661 C97.9678,124.084811 96.88175,124.663361 96.96295,125.414461 C97.04415,126.165561 97.81555,126.429461 98.46515,126.642611 C100.168486,127.238693 101.950316,127.580695 103.7533,127.657611 C104.005433,127.661444 104.214798,127.853362 104.2405,128.104211 C104.268928,128.354854 104.108952,128.588333 103.86495,128.652311 C102.342775,128.934301 100.901254,129.547641 99.64255,130.448861 C98.7261923,131.201946 98.274836,132.382417 98.455,133.554761 C98.6356471,134.464416 99.3093853,135.19691 100.2008,135.452811 C101.026639,135.696909 101.889122,135.793122 102.74845,135.737011 C110.5741,135.737011 120.24705,134.864111 125.72805,128.154961 C128.337857,125.126791 129.280325,121.003496 128.24525,117.142211 C127.872226,115.981033 127.302287,114.892654 126.56035,113.924661 C125.275075,112.263824 123.634753,110.911339 121.7594,109.966161 C116.53215,107.276411 110.0666,106.921161 103.54015,108.951161 L102.8804,109.154161 C100.7286,109.803761 97.4603,110.788311 97.2776,113.061911 C97.3165909,114.014306 97.9637903,114.833546 98.8813,115.091911 C99.4676298,115.279279 100.083899,115.355021 100.69815,115.315211 C101.1752,115.264461 101.6421,115.234011 102.0887,115.203561 C102.361837,115.196492 102.595215,115.399047 102.62665,115.670461 C102.644719,115.945663 102.443849,116.186707 102.1699,116.218561 C101.71315,116.218561 101.2361,116.320061 100.7489,116.330211 C99.7066973,116.397846 98.6981216,116.725895 97.81555,117.284311 C97.1485392,117.767094 96.7054794,118.499424 96.5874,119.314311 C96.5069774,119.814979 96.6394514,120.326476 96.9528,120.725161 C97.3655263,121.148767 97.8959176,121.438714 98.4753,121.557461 C99.4670115,121.825089 100.501839,121.894078 101.5203,121.760461 C101.9263,121.658961 102.34245,121.567611 102.74845,121.486411 C103.013306,121.435243 103.271911,121.600215 103.33715,121.861961 C103.397601,122.123759 103.247702,122.388287 102.99205,122.470961 C102.58023,122.590099 102.159262,122.674972 101.73345,122.724711 Z" id="Shape" fill="#3A4374"></path>
                    <path d="M70.36995,58.9928608 C70.36995,58.9928608 82.73265,77.5673608 75.2521,77.8312608 C67.77155,78.0951608 67.1321,76.1362108 67.1321,76.1362108" id="Path" fill="#FFFFFF"></path>
                    <path d="M73.9123,78.4199608 C67.6396,78.4199608 66.73625,76.7046108 66.61445,76.3899608 C66.5267947,76.1128417 66.6751116,75.8162081 66.9494,75.7200608 C67.2238642,75.6330722 67.5174039,75.7821001 67.60915,76.0550108 C67.60915,76.0550108 68.52265,77.6282608 75.2318,77.3846608 C75.8994225,77.4462251 76.5417214,77.1131812 76.8761,76.5320608 C78.4798,73.4160108 72.4101,63.0833108 69.9335,59.3684108 C69.7956634,59.1284166 69.8666159,58.822711 70.09607,58.6679629 C70.3255241,58.5132148 70.6355427,58.5619864 70.8064,58.7797108 C71.75035,60.2007108 79.9414,72.7867108 77.8099,77.0497108 C77.3123361,77.9776608 76.3239307,78.5351214 75.2724,78.4808608 L73.9123,78.4199608 Z" id="Path" fill="#3A4374"></path>
                    <ellipse id="Oval" fill="#C0C5DC" cx="104.79875" cy="57.9880108" rx="4.4863" ry="7.64295"></ellipse>
                    <ellipse id="Oval" fill="#3A4374" cx="49.8974" cy="57.9880108" rx="3.42055" ry="6.18135"></ellipse>
                </g>
            </g>
        </g>
    </g>
</svg>